# xmcd CD database file
#
# Track frame offsets:
#	150
#	13510
#	31432
#	48714
#	69026
#	92137
#	107731
#	130039
#	149677
#	171073
#	200123
#
# Disc length: 2792 seconds
#
# Revision: 3
# Processed by: cddbd v1.5.2PL0 Copyright (c) Steve Scherf et al.
# Submitted via: CDex 1.70beta2
#
DISCID=9a0ae60b
DTITLE=八神純子 - VREATH ～My Favorite Cocky Pop～
DYEAR=2012
DGENRE=Pop
TTITLE0=思い出は美しすぎて
TTITLE1=涙をこえて
TTITLE2=友だちならばFeat. 陣内大蔵
TTITLE3=時代
TTITLE4=待ちわびて
TTITLE5=ナオミの夢Feat. Chage
TTITLE6=白いページの中に
TTITLE7=サルビアの花
TTITLE8=20才のころ
TTITLE9=傷ついた翼
TTITLE10=思い出は美しすぎて [SCAT]
EXTD=YEAR: 2012
EXTT0=
EXTT1=
EXTT2=
EXTT3=
EXTT4=
EXTT5=
EXTT6=
EXTT7=
EXTT8=
EXTT9=
EXTT10=
PLAYORDER=
